<mxfile host="app.diagrams.net" modified="2020-03-31T14:38:13.846Z" agent="5.0 (X11)" etag="vxk7nudRln6oXs8xDnB0" version="12.9.5" type="github">
  <diagram id="NPehFKIFIu8CPyw0MXN7" name="Page-1">
    <mxGraphModel dx="1422" dy="761" grid="1" gridSize="10" guides="1" tooltips="1" connect="1" arrows="1" fold="1" page="1" pageScale="1" pageWidth="850" pageHeight="1100" math="0" shadow="0">
      <root>
        <mxCell id="0" />
        <mxCell id="1" parent="0" />
        <mxCell id="1twWHycm8sE2_-fP3iOX-3" value="I" style="rounded=0;whiteSpace=wrap;html=1;dashed=1;" vertex="1" parent="1">
          <mxGeometry x="350" y="410" width="60" height="40" as="geometry" />
        </mxCell>
        <mxCell id="1twWHycm8sE2_-fP3iOX-4" value="voted" style="rounded=0;whiteSpace=wrap;html=1;dashed=1;" vertex="1" parent="1">
          <mxGeometry x="425" y="410" width="60" height="40" as="geometry" />
        </mxCell>
        <mxCell id="1twWHycm8sE2_-fP3iOX-5" value="for " style="rounded=0;whiteSpace=wrap;html=1;dashed=1;" vertex="1" parent="1">
          <mxGeometry x="500" y="410" width="60" height="40" as="geometry" />
        </mxCell>
        <mxCell id="1twWHycm8sE2_-fP3iOX-6" value="Bill" style="rounded=0;whiteSpace=wrap;html=1;dashed=1;" vertex="1" parent="1">
          <mxGeometry x="580" y="400" width="60" height="40" as="geometry" />
        </mxCell>
        <mxCell id="1twWHycm8sE2_-fP3iOX-7" value="because" style="rounded=0;whiteSpace=wrap;html=1;dashed=1;" vertex="1" parent="1">
          <mxGeometry x="680" y="410" width="60" height="40" as="geometry" />
        </mxCell>
        <mxCell id="1twWHycm8sE2_-fP3iOX-9" value="he" style="rounded=0;whiteSpace=wrap;html=1;dashed=1;" vertex="1" parent="1">
          <mxGeometry x="690" y="480" width="60" height="40" as="geometry" />
        </mxCell>
        <mxCell id="1twWHycm8sE2_-fP3iOX-10" value="is" style="rounded=0;whiteSpace=wrap;html=1;dashed=1;" vertex="1" parent="1">
          <mxGeometry x="550" y="530" width="60" height="40" as="geometry" />
        </mxCell>
        <mxCell id="1twWHycm8sE2_-fP3iOX-12" value="cool" style="rounded=0;whiteSpace=wrap;html=1;dashed=1;" vertex="1" parent="1">
          <mxGeometry x="710" y="440" width="60" height="40" as="geometry" />
        </mxCell>
      </root>
    </mxGraphModel>
  </diagram>
</mxfile>
